<?xml version="1.0" encoding="utf-8"?><svg viewBox="0 0 57 30" xmlns="http://www.w3.org/2000/svg" xmlns:xlink="http://www.w3.org/1999/xlink"><style>:root>svg{display:none}:root>svg:target{display:block}</style><svg fill="none" viewBox="0 0 12 12" id="arrow_footer" xmlns="http://www.w3.org/2000/svg"><path d="M11.5 1a.5.5 0 00-.5-.5H6.5a.5.5 0 000 1h4v4a.5.5 0 001 0V1zM1.354 11.354l10-10-.708-.708-10 10 .708.708z" fill="#000"/></svg><svg fill="none" viewBox="0 0 18 22" id="bag" xmlns="http://www.w3.org/2000/svg"><path fill-rule="evenodd" clip-rule="evenodd" d="M5.155 5.583a3.918 3.918 0 017.69 0h-7.69zm-1.52 0a5.418 5.418 0 0110.73 0h2.802a.75.75 0 01.75.75v14a.75.75 0 01-.75.75H.833a.75.75 0 01-.75-.75v-14a.75.75 0 01.75-.75h2.802zm10.032 1.5H1.583v12.5h14.834v-12.5h-2.75z" fill="#fff"/></svg><svg fill="none" viewBox="0 0 18 22" id="bag-black" xmlns="http://www.w3.org/2000/svg"><path fill-rule="evenodd" clip-rule="evenodd" d="M5.155 5.583a3.918 3.918 0 017.69 0h-7.69zm-1.52 0a5.418 5.418 0 0110.73 0h2.802a.75.75 0 01.75.75v14a.75.75 0 01-.75.75H.833a.75.75 0 01-.75-.75v-14a.75.75 0 01.75-.75h2.802zm10.032 1.5H1.583v12.5h14.834v-12.5h-2.75z" fill="#000"/></svg><svg fill="none" viewBox="0 0 18 22" id="bag-w" xmlns="http://www.w3.org/2000/svg"><path fill-rule="evenodd" clip-rule="evenodd" d="M.083 6.333a.75.75 0 01.75-.75h16.334a.75.75 0 01.75.75v14a.75.75 0 01-.75.75H.833a.75.75 0 01-.75-.75v-14zm1.5.75v12.5h14.834v-12.5H1.583z" fill="#fff"/><path fill-rule="evenodd" clip-rule="evenodd" d="M9 2.417a3.917 3.917 0 00-3.917 3.916.75.75 0 11-1.5 0 5.417 5.417 0 0110.834 0 .75.75 0 01-1.5 0A3.917 3.917 0 009 2.417z" fill="#fff"/></svg><svg fill="none" viewBox="0 0 57 30" id="logo_pult" xmlns="http://www.w3.org/2000/svg"><path d="M28.724 26.184l11.496 3.797V0L28.724 3.796v22.389z" fill="#4CC7E9"/><path d="M0 11.405h1.971v1.125c.237-.396.57-.723.967-.95a2.618 2.618 0 011.303-.343c1.74 0 3.08 1.31 3.08 3.678v.118c0 2.368-1.324 3.712-3.08 3.712a2.5 2.5 0 01-1.303-.306 2.544 2.544 0 01-.967-.937v3.544H0v-9.641zm5.317 3.644v-.117c0-1.462-.71-2.167-1.69-2.167-1.026 0-1.74.72-1.74 2.166v.118c0 1.445.68 2.15 1.74 2.15 1.094-.017 1.69-.756 1.69-2.15zM8.382 16.04v-4.635h1.954v4.35c0 .974.398 1.444 1.226 1.444.829 0 1.475-.52 1.475-1.579v-4.215h1.954v7.188h-1.938v-1.125a2.37 2.37 0 01-.938.98c-.4.226-.858.33-1.315.296-1.392 0-2.418-.823-2.418-2.704zM16.498 8.146h1.955v10.43H16.5V8.146zM20.21 16.46v-3.645h-.912v-1.41h.911V9.859h1.955v1.546h1.49v1.41h-1.49v3.46c0 .571.281.857.778.857.256.01.51-.036.746-.135v1.547a3.408 3.408 0 01-1.193.185c-1.474-.002-2.286-.774-2.286-2.27zM45.338 11.404h1.971v1.378c.182-.457.5-.845.91-1.11.41-.265.891-.394 1.376-.368v1.847c-1.457-.017-2.286.47-2.286 1.847v3.595h-1.97v-7.189zM50.39 16.04v-4.635h1.955v4.35c0 .974.398 1.444 1.226 1.444s1.474-.52 1.474-1.579v-4.215H57v7.188h-1.955v-1.125a2.37 2.37 0 01-.939.98c-.4.226-.857.33-1.314.296-1.375 0-2.402-.823-2.402-2.704z" fill="#343741"/></svg></svg>