<svg width="125" height="20" fill="none" xmlns="http://www.w3.org/2000/svg"><path d="M16.545 6.396c1.616 0 2.896.48 3.84 1.44.96.944 1.44 2.368 1.44 4.272V19.5h-3.744v-6.816c0-1.024-.216-1.784-.648-2.28-.416-.512-1.016-.768-1.8-.768-.88 0-1.576.288-2.088.864-.512.56-.768 1.4-.768 2.52v6.48H9.033v-6.816c0-2.032-.816-3.048-2.448-3.048-.864 0-1.552.288-2.064.864-.512.56-.768 1.4-.768 2.52v6.48H.01V6.588h3.576v1.488a4.747 4.747 0 011.752-1.248 6.027 6.027 0 012.304-.432c.912 0 1.736.184 2.472.552a4.292 4.292 0 011.776 1.56 5.318 5.318 0 011.992-1.56 6.404 6.404 0 012.664-.552zm21.644.192V19.5h-3.552v-1.536a5.096 5.096 0 01-1.776 1.296 5.722 5.722 0 01-2.232.432c-1.696 0-3.04-.488-4.032-1.464s-1.488-2.424-1.488-4.344V6.588h3.744v6.744c0 2.08.872 3.12 2.616 3.12.896 0 1.616-.288 2.16-.864.544-.592.816-1.464.816-2.616V6.588h3.744zm7.813 13.104c-1.072 0-2.12-.128-3.144-.384-1.024-.272-1.84-.608-2.448-1.008l1.248-2.688c.576.368 1.272.672 2.088.912a9.042 9.042 0 002.4.336c1.584 0 2.376-.392 2.376-1.176 0-.368-.216-.632-.648-.792-.432-.16-1.096-.296-1.992-.408-1.056-.16-1.928-.344-2.616-.552a4.142 4.142 0 01-1.8-1.104c-.496-.528-.744-1.28-.744-2.256 0-.816.232-1.536.696-2.16.48-.64 1.168-1.136 2.064-1.488.912-.352 1.984-.528 3.216-.528.912 0 1.816.104 2.712.312.912.192 1.664.464 2.256.816l-1.248 2.664a7.45 7.45 0 00-3.72-.96c-.8 0-1.4.112-1.8.336-.4.224-.6.512-.6.864 0 .4.216.68.648.84.432.16 1.12.312 2.064.456 1.056.176 1.92.368 2.592.576a3.802 3.802 0 011.752 1.08c.496.528.744 1.264.744 2.208 0 .8-.24 1.512-.72 2.136-.48.624-1.184 1.112-2.112 1.464-.912.336-2 .504-3.264.504zm8.406-13.104h3.744V19.5h-3.744V6.588zm1.872-1.8c-.688 0-1.248-.2-1.68-.6a1.946 1.946 0 01-.648-1.488c0-.592.216-1.088.648-1.488.432-.4.992-.6 1.68-.6s1.248.192 1.68.576c.432.384.648.864.648 1.44 0 .624-.216 1.144-.648 1.56-.432.4-.992.6-1.68.6zm11.586 14.904c-1.376 0-2.616-.28-3.72-.84-1.088-.576-1.944-1.368-2.568-2.376-.608-1.008-.912-2.152-.912-3.432 0-1.28.304-2.424.912-3.432a6.4 6.4 0 012.568-2.352c1.104-.576 2.344-.864 3.72-.864 1.36 0 2.544.288 3.552.864a4.98 4.98 0 012.232 2.424l-2.904 1.56c-.672-1.184-1.64-1.776-2.904-1.776-.976 0-1.784.32-2.424.96-.64.64-.96 1.512-.96 2.616s.32 1.976.96 2.616c.64.64 1.448.96 2.424.96 1.28 0 2.248-.592 2.904-1.776l2.904 1.584c-.464 1.024-1.208 1.824-2.232 2.4-1.008.576-2.192.864-3.552.864zM90.451 6.396c1.6 0 2.888.48 3.864 1.44.992.96 1.488 2.384 1.488 4.272V19.5h-3.744v-6.816c0-1.024-.224-1.784-.672-2.28-.448-.512-1.096-.768-1.944-.768-.944 0-1.696.296-2.256.888-.56.576-.84 1.44-.84 2.592V19.5h-3.744V1.692h3.744v6.24a4.85 4.85 0 011.8-1.128 6.34 6.34 0 012.304-.408zm13.954 0c2 0 3.536.48 4.608 1.44 1.072.944 1.608 2.376 1.608 4.296V19.5h-3.504v-1.608c-.704 1.2-2.016 1.8-3.936 1.8-.992 0-1.856-.168-2.592-.504-.72-.336-1.272-.8-1.656-1.392-.384-.592-.576-1.264-.576-2.016 0-1.2.448-2.144 1.344-2.832.912-.688 2.312-1.032 4.2-1.032h2.976c0-.816-.248-1.44-.744-1.872-.496-.448-1.24-.672-2.232-.672-.688 0-1.368.112-2.04.336-.656.208-1.216.496-1.68.864l-1.344-2.616c.704-.496 1.544-.88 2.52-1.152a11.474 11.474 0 013.048-.408zm-.288 10.776c.64 0 1.208-.144 1.704-.432a2.486 2.486 0 001.056-1.32V14.1h-2.568c-1.536 0-2.304.504-2.304 1.512 0 .48.184.864.552 1.152.384.272.904.408 1.56.408zm9.892-15.48h3.744V19.5h-3.744V1.692zm7.219 0h3.744V19.5h-3.744V1.692z" fill="#003E81"/></svg>